# Blender 4.3.2
# www.blender.org
mtllib Multicoloured_Crystal.mtl
o Cube
v -1.190787 2.721114 0.710339
v -1.006854 2.324457 -0.716817
v 0.455260 2.646746 0.949342
v 0.398360 2.548731 -0.584147
v -0.402339 4.012628 0.208645
v -0.401890 4.012351 0.146464
v -0.339804 4.015806 0.146896
v -0.340253 4.016083 0.209078
v -0.920798 -2.133204 0.733845
v -0.758927 -2.133204 -0.695231
v 0.658762 -2.133204 -0.561475
v 0.721113 -2.133204 0.972488
vn -0.9921 -0.0557 -0.1124
vn 0.0939 0.0004 -0.9956
vn 0.9976 0.0553 -0.0406
vn -0.1438 -0.0032 0.9896
vn -0.8721 0.4350 -0.2239
vn -0.0555 0.9984 -0.0048
vn -0.1088 0.4202 0.9009
vn 0.0109 0.4514 -0.8923
vn 0.8781 0.4746 -0.0603
vn -0.0000 -1.0000 -0.0000
vt 0.381161 0.000000
vt 0.625000 0.000000
vt 0.625000 0.250000
vt 0.401086 0.250000
vt 0.625000 0.500000
vt 0.389820 0.500000
vt 0.625000 0.750000
vt 0.384897 0.750000
vt 0.625000 1.000000
vt 0.381161 1.000000
vt 0.875000 0.500000
vt 0.875000 0.750000
vt 0.791052 0.587394
vt 0.714366 0.594629
vt 0.710994 0.677604
vt 0.799808 0.664695
s 0
usemtl Material.004
f 9/1/1 1/2/1 2/3/1 10/4/1
f 10/4/2 2/3/2 4/5/2 11/6/2
f 11/6/3 4/5/3 3/7/3 12/8/3
f 12/8/4 3/7/4 1/9/4 9/10/4
f 2/3/5 1/2/5 5/2/5 6/3/5
f 7/5/6 6/11/6 5/12/6 8/7/6
f 1/9/7 3/7/7 8/7/7 5/9/7
f 4/5/8 2/3/8 6/3/8 7/5/8
f 3/7/9 4/5/9 7/5/9 8/7/9
f 10/13/10 11/14/10 12/15/10 9/16/10
o Cube.001
v -0.474920 -2.103310 0.250619
v 0.354044 2.073593 0.250619
v 0.428481 1.711004 -1.108597
v 1.850228 1.631368 0.466147
v 1.767985 1.571666 -0.991208
v 1.356063 2.961797 -0.226118
v 1.356063 2.961797 -0.285215
v 1.413810 2.950336 -0.285215
v 1.413810 2.950336 -0.226118
v -0.334455 -2.133204 -1.108597
v -0.468783 -2.133204 0.138558
v 1.032703 -2.133204 -0.991208
v 1.103097 -2.133204 0.466147
v -0.373780 -2.133204 0.265188
v -0.451829 -2.133204 0.232235
vn -0.9754 0.1936 -0.1051
vn 0.0855 -0.0170 -0.9962
vn 0.9798 -0.1944 -0.0473
vn -0.1348 0.0267 0.9905
vn -0.7089 0.6735 -0.2094
vn 0.1947 0.9809 -0.0000
vn 0.0131 0.4654 0.8850
vn 0.1247 0.4784 -0.8693
vn 0.9576 0.2810 -0.0630
vn -0.7425 -0.6562 0.1344
vn -0.2939 -0.6551 0.6961
vn -0.0000 -1.0000 -0.0000
vt 0.375000 0.000000
vt 0.625000 0.000000
vt 0.625000 0.250000
vt 0.394913 0.250000
vt 0.375000 0.020611
vt 0.625000 0.500000
vt 0.403253 0.500000
vt 0.625000 0.750000
vt 0.399679 0.750000
vt 0.625000 1.000000
vt 0.375000 1.000000
vt 0.375000 0.983100
vt 0.875000 0.500000
vt 0.875000 0.750000
vt 0.375000 1.000000
vt 0.775357 0.632495
vt 0.768091 0.565034
vt 0.694139 0.571384
vt 0.690332 0.650215
vt 0.770218 0.639345
vt 0.774440 0.637562
s 0
usemtl Material.003
f 13/17/11 14/18/11 15/19/11 22/20/11 23/21/11
f 22/20/12 15/19/12 17/22/12 24/23/12
f 24/23/13 17/22/13 16/24/13 25/25/13
f 25/25/14 16/24/14 14/26/14 13/27/14 26/28/14
f 15/19/15 14/18/15 18/18/15 19/19/15
f 20/22/16 19/29/16 18/30/16 21/24/16
f 14/26/17 16/24/17 21/24/17 18/26/17
f 17/22/18 15/19/18 19/19/18 20/22/18
f 16/24/19 17/22/19 20/22/19 21/24/19
f 27/17/20 13/17/20 23/21/20
f 27/31/21 26/28/21 13/27/21
f 23/32/22 22/33/22 24/34/22 25/35/22 26/36/22 27/37/22
o Cube.002
v -1.875054 1.315703 1.163081
v -1.693493 1.213187 -0.002780
v 0.243645 -2.027521 0.901985
v -0.682178 1.476305 1.367110
v 0.208220 -1.941122 -0.321994
v -0.717603 1.562703 0.143132
v -1.501158 2.403040 0.903277
v -1.501158 2.409575 0.854046
v -1.457130 2.421008 0.855563
v -1.457130 2.414472 0.904794
v -0.963743 -2.133204 0.705245
v -0.809269 -2.133204 -0.447006
v -0.328092 -2.133204 -0.402182
v -0.541319 -2.133204 0.767724
v 0.072059 -2.133204 -0.147340
v 0.148836 -2.133204 0.762376
vn -0.9628 -0.2373 -0.1291
vn 0.0916 0.1548 -0.9837
vn 0.9664 0.2567 -0.0099
vn -0.1442 -0.1676 0.9752
vn 0.3529 -0.7540 -0.5541
vn -0.9467 0.2774 -0.1634
vn -0.2534 0.9590 0.1273
vn -0.1964 0.2945 0.9352
vn -0.0923 0.5887 -0.8030
vn 0.7661 0.6423 0.0256
vn 0.7846 -0.6164 -0.0662
vn 0.0047 -0.7988 0.6015
vn -0.0000 -1.0000 -0.0000
vt 0.378919 0.000000
vt 0.625000 0.000000
vt 0.625000 0.250000
vt 0.386233 0.250000
vt 0.625000 0.500000
vt 0.375000 0.500000
vt 0.375000 0.362609
vt 0.625000 0.750000
vt 0.375000 0.750000
vt 0.625000 1.000000
vt 0.378919 1.000000
vt 0.375000 0.914511
vt 0.875000 0.500000
vt 0.875000 0.750000
vt 0.793775 0.600821
vt 0.767747 0.603245
vt 0.746102 0.617030
vt 0.741949 0.666238
vt 0.779281 0.666528
vt 0.802130 0.663148
s 0
usemtl Material.005
f 38/38/23 28/39/23 29/40/23 39/41/23
f 39/41/24 29/40/24 33/42/24 32/43/24 40/44/24
f 32/43/25 33/42/25 31/45/25 30/46/25
f 28/47/26 38/48/26 41/49/26 30/46/26 31/45/26
f 42/43/27 40/44/27 32/43/27
f 29/40/28 28/39/28 34/39/28 35/40/28
f 36/42/29 35/50/29 34/51/29 37/45/29
f 28/47/30 31/45/30 37/45/30 34/47/30
f 33/42/31 29/40/31 35/40/31 36/42/31
f 31/45/32 33/42/32 36/42/32 37/45/32
f 42/43/33 32/43/33 30/46/33 43/46/33
f 43/46/34 30/46/34 41/49/34
f 39/52/35 40/53/35 42/54/35 43/55/35 41/56/35 38/57/35
o Cube.003
v -0.521084 -1.978225 1.030232
v -0.521084 1.831099 1.847314
v -0.402541 -2.048978 -0.128183
v -0.402541 1.760346 0.688900
v 0.761488 1.666445 1.993277
v 0.704487 -1.958225 -0.009981
v 0.704487 1.851099 0.807102
v 0.147545 2.867158 1.668560
v 0.147545 2.877351 1.621039
v 0.196146 2.877351 1.621039
v 0.196146 2.867158 1.668560
v 0.758501 -2.133204 1.114045
v 0.761488 -2.133204 1.178270
v 0.686124 -2.133204 1.167618
v 0.517067 -2.133204 0.152639
v -0.304387 -2.133204 -0.012124
v -0.329767 -2.133204 0.871111
vn -0.9944 0.0221 -0.1031
vn 0.0869 0.2089 -0.9741
vn 0.9989 0.0100 -0.0464
vn -0.1369 -0.2078 0.9686
vn 0.1309 -0.7465 -0.6524
vn -0.8481 0.5184 -0.1094
vn -0.0000 0.9778 0.2097
vn -0.0790 0.2224 0.9718
vn 0.0297 0.6310 -0.7752
vn 0.9027 0.4295 0.0261
vn -0.6385 -0.7694 -0.0183
vn 0.6014 -0.7845 -0.1510
vn -0.1683 -0.7996 0.5765
vn -0.0000 -1.0000 -0.0000
vt 0.375000 0.000000
vt 0.625000 0.000000
vt 0.625000 0.250000
vt 0.375000 0.250000
vt 0.625000 0.500000
vt 0.375000 0.500000
vt 0.625000 0.750000
vt 0.375635 0.750000
vt 0.375000 0.736901
vt 0.625000 1.000000
vt 0.375000 1.000000
vt 0.375000 0.764690
vt 0.375000 0.500000
vt 0.875000 0.500000
vt 0.875000 0.750000
vt 0.722031 0.633256
vt 0.708971 0.685261
vt 0.708810 0.688735
vt 0.712886 0.688159
vt 0.767838 0.672120
vt 0.766465 0.624344
s 0
usemtl Material.002
f 44/58/36 45/59/36 47/60/36 46/61/36
f 46/61/37 47/60/37 50/62/37 49/63/37
f 48/64/38 56/65/38 55/66/38 49/63/38 50/62/38
f 56/65/39 48/64/39 45/67/39 44/68/39 57/69/39
f 46/61/40 49/63/40 58/70/40 59/61/40
f 47/60/41 45/59/41 51/59/41 52/60/41
f 53/62/42 52/71/42 51/72/42 54/64/42
f 45/67/43 48/64/43 54/64/43 51/67/43
f 50/62/44 47/60/44 52/60/44 53/62/44
f 48/64/45 50/62/45 53/62/45 54/64/45
f 44/58/46 46/61/46 59/61/46 60/58/46
f 58/70/47 49/63/47 55/66/47
f 60/68/48 57/69/48 44/68/48
f 58/73/49 55/74/49 56/75/49 57/76/49 60/77/49 59/78/49
o Cube.004
v -1.600004 0.750641 -0.434335
v -1.312832 0.253499 -1.786584
v 0.811918 -1.986979 0.488227
v -0.002895 1.108959 -0.188660
v 0.022227 0.727890 -1.684837
v -0.952837 1.642013 -1.097138
v -0.949546 1.629509 -1.158290
v -0.889604 1.645285 -1.158290
v -0.892895 1.657789 -1.097138
v -0.841010 -2.133204 0.196182
v -0.684680 -2.133204 -1.264762
v 0.775233 -2.133204 -1.059295
v 0.821558 -2.133204 -0.085893
v 0.160156 -2.133204 0.387970
v 0.686605 -2.133204 0.359842
vn -0.9563 -0.2740 -0.1023
vn 0.1372 -0.1770 -0.9746
vn 0.9685 0.2448 -0.0461
vn -0.1856 0.1630 0.9690
vn -0.8683 0.3821 -0.3162
vn -0.2490 0.9461 -0.2069
vn -0.2563 0.6925 0.6743
vn -0.0861 0.4316 -0.8980
vn 0.6435 0.7448 -0.1765
vn 0.6520 -0.7321 0.1974
vn 0.0392 -0.6780 0.7340
vn -0.0000 -1.0000 -0.0000
vt 0.392127 0.000000
vt 0.625000 0.000000
vt 0.625000 0.250000
vt 0.432271 0.250000
vt 0.625000 0.500000
vt 0.393964 0.500000
vt 0.625000 0.750000
vt 0.375000 0.750000
vt 0.375000 0.654069
vt 0.625000 1.000000
vt 0.392127 1.000000
vt 0.375000 0.852022
vt 0.875000 0.500000
vt 0.875000 0.750000
vt 0.787035 0.556587
vt 0.708066 0.567701
vt 0.705561 0.620354
vt 0.712860 0.644464
vt 0.741337 0.645986
vt 0.795492 0.635612
s 0
usemtl Material.006
f 70/79/50 61/80/50 62/81/50 71/82/50
f 71/82/51 62/81/51 65/83/51 72/84/51
f 72/84/52 65/83/52 64/85/52 63/86/52 73/87/52
f 61/88/53 70/89/53 74/90/53 63/86/53 64/85/53
f 62/81/54 61/80/54 66/80/54 67/81/54
f 68/83/55 67/91/55 66/92/55 69/85/55
f 61/88/56 64/85/56 69/85/56 66/88/56
f 65/83/57 62/81/57 67/81/57 68/83/57
f 64/85/58 65/83/58 68/83/58 69/85/58
f 63/86/59 75/86/59 73/87/59
f 75/86/60 63/86/60 74/90/60
f 71/93/61 72/94/61 73/95/61 75/96/61 74/97/61 70/98/61
