# Blender 4.3.2
# www.blender.org
mtllib Spawn Object.mtl
o Cylinder
v -0.000000 -0.169710 -1.254842
v 0.000000 0.217210 -1.000000
v 0.244807 -0.169710 -1.230730
v 0.195090 0.217210 -0.980785
v 0.480207 -0.169710 -1.159322
v 0.382683 0.217210 -0.923880
v 0.697153 -0.169710 -1.043362
v 0.555570 0.217210 -0.831470
v 0.887307 -0.169710 -0.887307
v 0.707107 0.217210 -0.707107
v 1.043363 -0.169710 -0.697153
v 0.831470 0.217210 -0.555570
v 1.159322 -0.169710 -0.480207
v 0.923880 0.217210 -0.382683
v 1.230730 -0.169710 -0.244807
v 0.980785 0.217210 -0.195090
v 1.254842 -0.169710 0.000000
v 1.000000 0.217210 0.000000
v 1.230730 -0.169710 0.244807
v 0.980785 0.217210 0.195090
v 1.159322 -0.169710 0.480207
v 0.923880 0.217210 0.382683
v 1.043363 -0.169710 0.697153
v 0.831470 0.217210 0.555570
v 0.887307 -0.169710 0.887307
v 0.707107 0.217210 0.707107
v 0.697153 -0.169710 1.043363
v 0.555570 0.217210 0.831470
v 0.480207 -0.169710 1.159322
v 0.382683 0.217210 0.923880
v 0.244807 -0.169710 1.230730
v 0.195090 0.217210 0.980785
v -0.000000 -0.169710 1.254842
v 0.000000 0.217210 1.000000
v -0.244807 -0.169710 1.230730
v -0.195090 0.217210 0.980785
v -0.480207 -0.169710 1.159322
v -0.382683 0.217210 0.923880
v -0.697153 -0.169710 1.043363
v -0.555570 0.217210 0.831470
v -0.887307 -0.169710 0.887307
v -0.707107 0.217210 0.707107
v -1.043363 -0.169710 0.697153
v -0.831470 0.217210 0.555570
v -1.159322 -0.169710 0.480207
v -0.923880 0.217210 0.382683
v -1.230730 -0.169710 0.244807
v -0.980785 0.217210 0.195090
v -1.254842 -0.169710 0.000000
v -1.000000 0.217210 0.000000
v -1.230730 -0.169710 -0.244807
v -0.980785 0.217210 -0.195090
v -1.159322 -0.169710 -0.480207
v -0.923880 0.217210 -0.382683
v -1.043363 -0.169710 -0.697153
v -0.831470 0.217210 -0.555570
v -0.887307 -0.169710 -0.887307
v -0.707107 0.217210 -0.707107
v -0.697153 -0.169710 -1.043362
v -0.555570 0.217210 -0.831470
v -0.480207 -0.169710 -1.159322
v -0.382683 0.217210 -0.923880
v -0.244807 -0.169710 -1.230730
v -0.195090 0.217210 -0.980785
v 0.107355 0.143560 -0.539711
v 0.000000 0.143560 -0.550284
v 0.210585 0.143560 -0.508396
v 0.305722 0.143560 -0.457545
v 0.389110 0.143560 -0.389110
v 0.457545 0.143560 -0.305722
v 0.508396 0.143560 -0.210585
v 0.539711 0.143560 -0.107355
v 0.550284 0.143560 0.000000
v 0.539711 0.143560 0.107355
v 0.508396 0.143560 0.210585
v 0.457545 0.143560 0.305722
v 0.389110 0.143560 0.389110
v 0.305722 0.143560 0.457545
v 0.210585 0.143560 0.508396
v 0.107355 0.143560 0.539711
v 0.000000 0.143560 0.550284
v -0.107355 0.143560 0.539711
v -0.210585 0.143560 0.508396
v -0.305722 0.143560 0.457545
v -0.389110 0.143560 0.389110
v -0.457545 0.143560 0.305722
v -0.508396 0.143560 0.210585
v -0.539711 0.143560 0.107355
v -0.550284 0.143560 0.000000
v -0.539711 0.143560 -0.107355
v -0.508396 0.143560 -0.210585
v -0.457545 0.143560 -0.305722
v -0.389110 0.143560 -0.389110
v -0.305722 0.143560 -0.457545
v -0.210585 0.143560 -0.508396
v -0.107355 0.143560 -0.539711
vn 0.0820 0.5482 -0.8323
vn 0.2428 0.5482 -0.8003
vn 0.3943 0.5482 -0.7376
vn 0.5306 0.5482 -0.6465
vn 0.6465 0.5482 -0.5306
vn 0.7376 0.5482 -0.3943
vn 0.8003 0.5482 -0.2428
vn 0.8323 0.5482 -0.0820
vn 0.8323 0.5482 0.0820
vn 0.8003 0.5482 0.2428
vn 0.7376 0.5482 0.3943
vn 0.6465 0.5482 0.5306
vn 0.5306 0.5482 0.6465
vn 0.3943 0.5482 0.7376
vn 0.2428 0.5482 0.8003
vn 0.0820 0.5482 0.8323
vn -0.0820 0.5482 0.8323
vn -0.2428 0.5482 0.8003
vn -0.3943 0.5482 0.7376
vn -0.5306 0.5482 0.6465
vn -0.6465 0.5482 0.5306
vn -0.7376 0.5482 0.3943
vn -0.8003 0.5482 0.2428
vn -0.8323 0.5482 0.0820
vn -0.8323 0.5482 -0.0820
vn -0.8003 0.5482 -0.2428
vn -0.7376 0.5482 -0.3943
vn -0.6465 0.5482 -0.5306
vn -0.5306 0.5482 -0.6465
vn -0.3943 0.5482 -0.7376
vn 0.1255 0.9867 0.1030
vn -0.2428 0.5482 -0.8003
vn -0.0820 0.5482 -0.8323
vn -0.0000 -1.0000 -0.0000
vn -0.0000 1.0000 -0.0000
vn -0.1432 0.9867 0.0765
vn -0.0471 0.9867 -0.1554
vn 0.1616 0.9867 -0.0159
vn -0.0471 0.9867 0.1554
vn -0.1432 0.9867 -0.0765
vn 0.1030 0.9867 -0.1255
vn 0.1030 0.9867 0.1255
vn -0.1554 0.9867 0.0471
vn -0.0159 0.9867 -0.1616
vn 0.1616 0.9867 0.0159
vn -0.0765 0.9867 0.1432
vn -0.1255 0.9867 -0.1030
vn 0.1255 0.9867 -0.1030
vn 0.0765 0.9867 0.1432
vn -0.1616 0.9867 0.0159
vn 0.0159 0.9867 -0.1616
vn 0.1554 0.9867 0.0471
vn -0.1030 0.9867 0.1255
vn -0.1030 0.9867 -0.1255
vn 0.1432 0.9867 -0.0765
vn 0.0471 0.9867 0.1554
vn -0.1616 0.9867 -0.0159
vn 0.0471 0.9867 -0.1554
vn 0.1432 0.9867 0.0765
vn -0.1255 0.9867 0.1030
vn -0.0765 0.9867 -0.1432
vn 0.1554 0.9867 -0.0471
vn -0.0159 0.9867 0.1616
vn 0.0159 0.9867 0.1616
vn -0.1554 0.9867 -0.0471
vn 0.0765 0.9867 -0.1432
vt 1.000000 0.500000
vt 1.000000 1.000000
vt 0.968750 1.000000
vt 0.968750 0.500000
vt 0.937500 1.000000
vt 0.937500 0.500000
vt 0.906250 1.000000
vt 0.906250 0.500000
vt 0.875000 1.000000
vt 0.875000 0.500000
vt 0.843750 1.000000
vt 0.843750 0.500000
vt 0.812500 1.000000
vt 0.812500 0.500000
vt 0.781250 1.000000
vt 0.781250 0.500000
vt 0.750000 1.000000
vt 0.750000 0.500000
vt 0.718750 1.000000
vt 0.718750 0.500000
vt 0.687500 1.000000
vt 0.687500 0.500000
vt 0.656250 1.000000
vt 0.656250 0.500000
vt 0.625000 1.000000
vt 0.625000 0.500000
vt 0.593750 1.000000
vt 0.593750 0.500000
vt 0.562500 1.000000
vt 0.562500 0.500000
vt 0.531250 1.000000
vt 0.531250 0.500000
vt 0.500000 1.000000
vt 0.500000 0.500000
vt 0.468750 1.000000
vt 0.468750 0.500000
vt 0.437500 1.000000
vt 0.437500 0.500000
vt 0.406250 1.000000
vt 0.406250 0.500000
vt 0.375000 1.000000
vt 0.375000 0.500000
vt 0.343750 1.000000
vt 0.343750 0.500000
vt 0.312500 1.000000
vt 0.312500 0.500000
vt 0.281250 1.000000
vt 0.281250 0.500000
vt 0.250000 1.000000
vt 0.250000 0.500000
vt 0.218750 1.000000
vt 0.218750 0.500000
vt 0.187500 1.000000
vt 0.187500 0.500000
vt 0.156250 1.000000
vt 0.156250 0.500000
vt 0.125000 1.000000
vt 0.125000 0.500000
vt 0.093750 1.000000
vt 0.093750 0.500000
vt 0.062500 1.000000
vt 0.062500 0.500000
vt 0.031250 1.000000
vt 0.031250 0.500000
vt 0.000000 1.000000
vt 0.000000 0.500000
vt 0.750000 0.490000
vt 0.796822 0.485388
vt 0.841844 0.471731
vt 0.883337 0.449553
vt 0.919706 0.419706
vt 0.949553 0.383337
vt 0.971731 0.341844
vt 0.985388 0.296822
vt 0.990000 0.250000
vt 0.985388 0.203178
vt 0.971731 0.158156
vt 0.949553 0.116663
vt 0.919706 0.080294
vt 0.883337 0.050447
vt 0.841844 0.028269
vt 0.796822 0.014612
vt 0.750000 0.010000
vt 0.703178 0.014612
vt 0.658156 0.028269
vt 0.616663 0.050447
vt 0.580294 0.080294
vt 0.550447 0.116663
vt 0.528269 0.158156
vt 0.514612 0.203178
vt 0.510000 0.250000
vt 0.514612 0.296822
vt 0.528269 0.341844
vt 0.550447 0.383337
vt 0.580294 0.419706
vt 0.616663 0.449553
vt 0.658156 0.471731
vt 0.703178 0.485388
vt 0.296822 0.485388
vt 0.250000 0.490000
vt 0.203178 0.485388
vt 0.158156 0.471731
vt 0.116663 0.449553
vt 0.080294 0.419706
vt 0.050447 0.383337
vt 0.028269 0.341844
vt 0.014612 0.296822
vt 0.010000 0.250000
vt 0.014612 0.203178
vt 0.028269 0.158156
vt 0.050447 0.116663
vt 0.080294 0.080294
vt 0.116663 0.050447
vt 0.158156 0.028269
vt 0.203178 0.014612
vt 0.250000 0.010000
vt 0.296822 0.014612
vt 0.341844 0.028269
vt 0.383337 0.050447
vt 0.419706 0.080294
vt 0.449553 0.116663
vt 0.471731 0.158156
vt 0.485388 0.203178
vt 0.490000 0.250000
vt 0.485388 0.296822
vt 0.471731 0.341844
vt 0.449553 0.383337
vt 0.419706 0.419706
vt 0.383337 0.449553
vt 0.341844 0.471731
s 0
usemtl Material.003
f 1/1/1 2/2/1 4/3/1 3/4/1
f 3/4/2 4/3/2 6/5/2 5/6/2
f 5/6/3 6/5/3 8/7/3 7/8/3
f 7/8/4 8/7/4 10/9/4 9/10/4
f 9/10/5 10/9/5 12/11/5 11/12/5
f 11/12/6 12/11/6 14/13/6 13/14/6
f 13/14/7 14/13/7 16/15/7 15/16/7
f 15/16/8 16/15/8 18/17/8 17/18/8
f 17/18/9 18/17/9 20/19/9 19/20/9
f 19/20/10 20/19/10 22/21/10 21/22/10
f 21/22/11 22/21/11 24/23/11 23/24/11
f 23/24/12 24/23/12 26/25/12 25/26/12
f 25/26/13 26/25/13 28/27/13 27/28/13
f 27/28/14 28/27/14 30/29/14 29/30/14
f 29/30/15 30/29/15 32/31/15 31/32/15
f 31/32/16 32/31/16 34/33/16 33/34/16
f 33/34/17 34/33/17 36/35/17 35/36/17
f 35/36/18 36/35/18 38/37/18 37/38/18
f 37/38/19 38/37/19 40/39/19 39/40/19
f 39/40/20 40/39/20 42/41/20 41/42/20
f 41/42/21 42/41/21 44/43/21 43/44/21
f 43/44/22 44/43/22 46/45/22 45/46/22
f 45/46/23 46/45/23 48/47/23 47/48/23
f 47/48/24 48/47/24 50/49/24 49/50/24
f 49/50/25 50/49/25 52/51/25 51/52/25
f 51/52/26 52/51/26 54/53/26 53/54/26
f 53/54/27 54/53/27 56/55/27 55/56/27
f 55/56/28 56/55/28 58/57/28 57/58/28
f 57/58/29 58/57/29 60/59/29 59/60/29
f 59/60/30 60/59/30 62/61/30 61/62/30
f 58/57/31 56/55/31 92/55/31 93/57/31
f 61/62/32 62/61/32 64/63/32 63/64/32
f 63/64/33 64/63/33 2/65/33 1/66/33
f 1/67/34 3/68/34 5/69/34 7/70/34 9/71/34 11/72/34 13/73/34 15/74/34 17/75/34 19/76/34 21/77/34 23/78/34 25/79/34 27/80/34 29/81/34 31/82/34 33/83/34 35/84/34 37/85/34 39/86/34 41/87/34 43/88/34 45/89/34 47/90/34 49/91/34 51/92/34 53/93/34 55/94/34 57/95/34 59/96/34 61/97/34 63/98/34
f 65/99/35 66/100/35 96/101/35 95/102/35 94/103/35 93/104/35 92/105/35 91/106/35 90/107/35 89/108/35 88/109/35 87/110/35 86/111/35 85/112/35 84/113/35 83/114/35 82/115/35 81/116/35 80/117/35 79/118/35 78/119/35 77/120/35 76/121/35 75/122/35 74/123/35 73/124/35 72/125/35 71/126/35 70/127/35 69/128/35 68/129/35 67/130/35
f 14/13/36 12/11/36 70/11/36 71/13/36
f 32/31/37 30/29/37 79/29/37 80/31/37
f 50/49/38 48/47/38 88/47/38 89/49/38
f 6/5/39 4/3/39 65/3/39 67/5/39
f 24/23/40 22/21/40 75/21/40 76/23/40
f 42/41/41 40/39/41 84/39/41 85/41/41
f 60/59/42 58/57/42 93/57/42 94/59/42
f 16/15/43 14/13/43 71/13/43 72/15/43
f 34/33/44 32/31/44 80/31/44 81/33/44
f 52/51/45 50/49/45 89/49/45 90/51/45
f 8/7/46 6/5/46 67/5/46 68/7/46
f 26/25/47 24/23/47 76/23/47 77/25/47
f 44/43/48 42/41/48 85/41/48 86/43/48
f 62/61/49 60/59/49 94/59/49 95/61/49
f 18/17/50 16/15/50 72/15/50 73/17/50
f 36/35/51 34/33/51 81/33/51 82/35/51
f 54/53/52 52/51/52 90/51/52 91/53/52
f 10/9/53 8/7/53 68/7/53 69/9/53
f 28/27/54 26/25/54 77/25/54 78/27/54
f 46/45/55 44/43/55 86/43/55 87/45/55
f 64/63/56 62/61/56 95/61/56 96/63/56
f 20/19/57 18/17/57 73/17/57 74/19/57
f 38/37/58 36/35/58 82/35/58 83/37/58
f 56/55/59 54/53/59 91/53/59 92/55/59
f 12/11/60 10/9/60 69/9/60 70/11/60
f 30/29/61 28/27/61 78/27/61 79/29/61
f 48/47/62 46/45/62 87/45/62 88/47/62
f 4/3/63 2/2/63 66/2/63 65/3/63
f 2/65/64 64/63/64 96/63/64 66/65/64
f 22/21/65 20/19/65 74/19/65 75/21/65
f 40/39/66 38/37/66 83/37/66 84/39/66
o Cylinder.001
v -0.000000 3.041327 -1.128493
v 0.000000 3.237338 -1.000000
v 0.220158 3.041327 -1.106809
v 0.195090 3.237338 -0.980785
v 0.431856 3.041327 -1.042591
v 0.382683 3.237338 -0.923880
v 0.626957 3.041327 -0.938308
v 0.555570 3.237338 -0.831470
v 0.797965 3.041327 -0.797965
v 0.707107 3.237338 -0.707107
v 0.938308 3.041327 -0.626957
v 0.831470 3.237338 -0.555570
v 1.042591 3.041327 -0.431856
v 0.923880 3.237338 -0.382683
v 1.106809 3.041327 -0.220158
v 0.980785 3.237338 -0.195090
v 1.128493 3.041327 0.000000
v 1.000000 3.237338 0.000000
v 1.106809 3.041327 0.220158
v 0.980785 3.237338 0.195090
v 1.042591 3.041327 0.431856
v 0.923880 3.237338 0.382683
v 0.938308 3.041327 0.626957
v 0.831470 3.237338 0.555570
v 0.797965 3.041327 0.797965
v 0.707107 3.237338 0.707107
v 0.626957 3.041327 0.938308
v 0.555570 3.237338 0.831470
v 0.431856 3.041327 1.042591
v 0.382683 3.237338 0.923880
v 0.220158 3.041327 1.106809
v 0.195090 3.237338 0.980785
v -0.000000 3.041327 1.128493
v 0.000000 3.237338 1.000000
v -0.220158 3.041327 1.106809
v -0.195090 3.237338 0.980785
v -0.431856 3.041327 1.042591
v -0.382683 3.237338 0.923880
v -0.626957 3.041327 0.938308
v -0.555570 3.237338 0.831470
v -0.797965 3.041327 0.797965
v -0.707107 3.237338 0.707107
v -0.938308 3.041327 0.626957
v -0.831470 3.237338 0.555570
v -1.042591 3.041327 0.431856
v -0.923880 3.237338 0.382683
v -1.106809 3.041327 0.220158
v -0.980785 3.237338 0.195090
v -1.128493 3.041327 0.000000
v -1.000000 3.237338 0.000000
v -1.106809 3.041327 -0.220158
v -0.980785 3.237338 -0.195090
v -1.042591 3.041327 -0.431856
v -0.923880 3.237338 -0.382683
v -0.938308 3.041327 -0.626957
v -0.831470 3.237338 -0.555570
v -0.797965 3.041327 -0.797965
v -0.707107 3.237338 -0.707107
v -0.626957 3.041327 -0.938308
v -0.555570 3.237338 -0.831470
v -0.431856 3.041327 -1.042591
v -0.382683 3.237338 -0.923880
v -0.220158 3.041327 -1.106809
v -0.195090 3.237338 -0.980785
v -0.000000 2.961044 -0.491947
v 0.095974 2.961044 -0.482494
v 0.188260 2.961044 -0.454500
v 0.273311 2.961044 -0.409039
v 0.347859 2.961044 -0.347859
v 0.409039 2.961044 -0.273311
v 0.454500 2.961044 -0.188260
v 0.482494 2.961044 -0.095974
v 0.491947 2.961044 -0.000000
v 0.482494 2.961044 0.095974
v 0.454500 2.961044 0.188260
v 0.409039 2.961044 0.273311
v 0.347859 2.961044 0.347859
v 0.273311 2.961044 0.409039
v 0.188260 2.961044 0.454500
v 0.095974 2.961044 0.482494
v -0.000000 2.961044 0.491947
v -0.095974 2.961044 0.482494
v -0.188260 2.961044 0.454500
v -0.273311 2.961044 0.409039
v -0.347859 2.961044 0.347859
v -0.409039 2.961044 0.273311
v -0.454500 2.961044 0.188260
v -0.482494 2.961044 0.095974
v -0.491947 2.961044 -0.000000
v -0.482494 2.961044 -0.095974
v -0.454500 2.961044 -0.188260
v -0.409039 2.961044 -0.273311
v -0.347859 2.961044 -0.347859
v -0.273311 2.961044 -0.409039
v -0.188260 2.961044 -0.454500
v -0.095974 2.961044 -0.482494
v 0.091868 3.380054 -0.461854
v 0.000000 3.380054 -0.470902
v 0.180207 3.380054 -0.435057
v 0.261619 3.380054 -0.391541
v 0.332978 3.380054 -0.332978
v 0.391541 3.380054 -0.261619
v 0.435057 3.380054 -0.180207
v 0.461854 3.380054 -0.091868
v 0.470902 3.380054 -0.000000
v 0.461854 3.380054 0.091868
v 0.435057 3.380054 0.180207
v 0.391541 3.380054 0.261619
v 0.332978 3.380054 0.332978
v 0.261619 3.380054 0.391541
v 0.180207 3.380054 0.435057
v 0.091868 3.380054 0.461854
v 0.000000 3.380054 0.470902
v -0.091868 3.380054 0.461854
v -0.180207 3.380054 0.435057
v -0.261619 3.380054 0.391541
v -0.332978 3.380054 0.332978
v -0.391541 3.380054 0.261619
v -0.435057 3.380054 0.180207
v -0.461854 3.380054 0.091868
v -0.470902 3.380054 -0.000000
v -0.461854 3.380054 -0.091868
v -0.435057 3.380054 -0.180207
v -0.391541 3.380054 -0.261619
v -0.332978 3.380054 -0.332978
v -0.261619 3.380054 -0.391541
v -0.180207 3.380054 -0.435057
v -0.091868 3.380054 -0.461854
vn 0.0821 0.5464 -0.8335
vn 0.2431 0.5464 -0.8015
vn 0.3948 0.5464 -0.7386
vn 0.5313 0.5464 -0.6474
vn 0.6474 0.5464 -0.5313
vn 0.7386 0.5464 -0.3948
vn 0.8015 0.5464 -0.2431
vn 0.8335 0.5464 -0.0821
vn 0.8335 0.5464 0.0821
vn 0.8015 0.5464 0.2431
vn 0.7386 0.5464 0.3948
vn 0.6474 0.5464 0.5313
vn 0.5313 0.5464 0.6474
vn 0.3948 0.5464 0.7386
vn 0.2431 0.5464 0.8015
vn 0.0821 0.5464 0.8335
vn -0.0821 0.5464 0.8335
vn -0.2431 0.5464 0.8015
vn -0.3948 0.5464 0.7386
vn -0.5313 0.5464 0.6474
vn -0.6474 0.5464 0.5313
vn -0.7386 0.5464 0.3948
vn -0.8015 0.5464 0.2431
vn -0.8335 0.5464 0.0821
vn -0.8335 0.5464 -0.0821
vn -0.8015 0.5464 -0.2431
vn -0.7386 0.5464 -0.3948
vn -0.6474 0.5464 -0.5313
vn -0.5313 0.5464 -0.6474
vn -0.3948 0.5464 -0.7386
vn -0.2503 0.9652 0.0759
vn -0.2431 0.5464 -0.8015
vn -0.0821 0.5464 -0.8335
vn 0.0972 -0.9921 0.0798
vn -0.0000 -1.0000 -0.0000
vn -0.0972 -0.9921 0.0798
vn -0.0593 -0.9921 -0.1109
vn 0.1251 -0.9921 -0.0123
vn -0.0123 -0.9921 0.1251
vn -0.1203 -0.9921 -0.0365
vn 0.0798 -0.9921 -0.0972
vn 0.0798 -0.9921 0.0972
vn -0.1109 -0.9921 0.0593
vn -0.0365 -0.9921 -0.1203
vn 0.1251 -0.9921 0.0123
vn -0.0365 -0.9921 0.1203
vn -0.1109 -0.9921 -0.0593
vn 0.0972 -0.9921 -0.0798
vn 0.0593 -0.9921 0.1109
vn -0.1203 -0.9921 0.0365
vn 0.0123 -0.9921 -0.1251
vn -0.0123 -0.9921 -0.1251
vn 0.1203 -0.9921 0.0365
vn -0.0593 -0.9921 0.1109
vn -0.0972 -0.9921 -0.0798
vn 0.1109 -0.9921 -0.0593
vn 0.0365 -0.9921 0.1203
vn -0.1251 -0.9921 0.0123
vn 0.0365 -0.9921 -0.1203
vn 0.1109 -0.9921 0.0593
vn -0.0798 -0.9921 0.0972
vn -0.0798 -0.9921 -0.0972
vn 0.1203 -0.9921 -0.0365
vn 0.0123 -0.9921 0.1251
vn -0.1251 -0.9921 -0.0123
vn 0.0593 -0.9921 -0.1109
vn -0.0000 1.0000 -0.0000
vn 0.0256 0.9652 -0.2603
vn -0.0256 0.9652 -0.2603
vn 0.2503 0.9652 0.0759
vn -0.1233 0.9652 0.2307
vn -0.2022 0.9652 -0.1660
vn 0.2307 0.9652 -0.1233
vn 0.0759 0.9652 0.2503
vn -0.2603 0.9652 0.0256
vn 0.0759 0.9652 -0.2503
vn 0.2307 0.9652 0.1233
vn -0.1660 0.9652 0.2022
vn -0.1660 0.9652 -0.2022
vn 0.2503 0.9652 -0.0759
vn 0.0256 0.9652 0.2603
vn -0.2603 0.9652 -0.0256
vn 0.1233 0.9652 -0.2307
vn 0.2022 0.9652 0.1660
vn -0.2022 0.9652 0.1660
vn -0.1233 0.9652 -0.2307
vn 0.2603 0.9652 -0.0256
vn -0.0256 0.9652 0.2603
vn -0.2503 0.9652 -0.0759
vn 0.1660 0.9652 -0.2022
vn 0.1660 0.9652 0.2022
vn -0.2307 0.9652 0.1233
vn -0.0759 0.9652 -0.2503
vn 0.2603 0.9652 0.0256
vn -0.0759 0.9652 0.2503
vn -0.2307 0.9652 -0.1233
vn 0.2022 0.9652 -0.1660
vn 0.1233 0.9652 0.2307
vt 1.000000 0.500000
vt 1.000000 1.000000
vt 0.968750 1.000000
vt 0.968750 0.500000
vt 0.937500 1.000000
vt 0.937500 0.500000
vt 0.906250 1.000000
vt 0.906250 0.500000
vt 0.875000 1.000000
vt 0.875000 0.500000
vt 0.843750 1.000000
vt 0.843750 0.500000
vt 0.812500 1.000000
vt 0.812500 0.500000
vt 0.781250 1.000000
vt 0.781250 0.500000
vt 0.750000 1.000000
vt 0.750000 0.500000
vt 0.718750 1.000000
vt 0.718750 0.500000
vt 0.687500 1.000000
vt 0.687500 0.500000
vt 0.656250 1.000000
vt 0.656250 0.500000
vt 0.625000 1.000000
vt 0.625000 0.500000
vt 0.593750 1.000000
vt 0.593750 0.500000
vt 0.562500 1.000000
vt 0.562500 0.500000
vt 0.531250 1.000000
vt 0.531250 0.500000
vt 0.500000 1.000000
vt 0.500000 0.500000
vt 0.468750 1.000000
vt 0.468750 0.500000
vt 0.437500 1.000000
vt 0.437500 0.500000
vt 0.406250 1.000000
vt 0.406250 0.500000
vt 0.375000 1.000000
vt 0.375000 0.500000
vt 0.343750 1.000000
vt 0.343750 0.500000
vt 0.312500 1.000000
vt 0.312500 0.500000
vt 0.281250 1.000000
vt 0.281250 0.500000
vt 0.250000 1.000000
vt 0.250000 0.500000
vt 0.218750 1.000000
vt 0.218750 0.500000
vt 0.187500 1.000000
vt 0.187500 0.500000
vt 0.156250 1.000000
vt 0.156250 0.500000
vt 0.125000 1.000000
vt 0.125000 0.500000
vt 0.093750 1.000000
vt 0.093750 0.500000
vt 0.062500 1.000000
vt 0.062500 0.500000
vt 0.031250 1.000000
vt 0.031250 0.500000
vt 0.000000 1.000000
vt 0.000000 0.500000
vt 0.750000 0.490000
vt 0.796822 0.485388
vt 0.841844 0.471731
vt 0.883337 0.449553
vt 0.919706 0.419706
vt 0.949553 0.383337
vt 0.971731 0.341844
vt 0.985388 0.296822
vt 0.990000 0.250000
vt 0.985388 0.203178
vt 0.971731 0.158156
vt 0.949553 0.116663
vt 0.919706 0.080294
vt 0.883337 0.050447
vt 0.841844 0.028269
vt 0.796822 0.014612
vt 0.750000 0.010000
vt 0.703178 0.014612
vt 0.658156 0.028269
vt 0.616663 0.050447
vt 0.580294 0.080294
vt 0.550447 0.116663
vt 0.528269 0.158156
vt 0.514612 0.203178
vt 0.510000 0.250000
vt 0.514612 0.296822
vt 0.528269 0.341844
vt 0.550447 0.383337
vt 0.580294 0.419706
vt 0.616663 0.449553
vt 0.658156 0.471731
vt 0.703178 0.485388
vt 0.296822 0.485388
vt 0.250000 0.490000
vt 0.203178 0.485388
vt 0.158156 0.471731
vt 0.116663 0.449553
vt 0.080294 0.419706
vt 0.050447 0.383337
vt 0.028269 0.341844
vt 0.014612 0.296822
vt 0.010000 0.250000
vt 0.014612 0.203178
vt 0.028269 0.158156
vt 0.050447 0.116663
vt 0.080294 0.080294
vt 0.116663 0.050447
vt 0.158156 0.028269
vt 0.203178 0.014612
vt 0.250000 0.010000
vt 0.296822 0.014612
vt 0.341844 0.028269
vt 0.383337 0.050447
vt 0.419706 0.080294
vt 0.449553 0.116663
vt 0.471731 0.158156
vt 0.485388 0.203178
vt 0.490000 0.250000
vt 0.485388 0.296822
vt 0.471731 0.341844
vt 0.449553 0.383337
vt 0.419706 0.419706
vt 0.383337 0.449553
vt 0.341844 0.471731
s 0
f 97/131/67 98/132/67 100/133/67 99/134/67
f 99/134/68 100/133/68 102/135/68 101/136/68
f 101/136/69 102/135/69 104/137/69 103/138/69
f 103/138/70 104/137/70 106/139/70 105/140/70
f 105/140/71 106/139/71 108/141/71 107/142/71
f 107/142/72 108/141/72 110/143/72 109/144/72
f 109/144/73 110/143/73 112/145/73 111/146/73
f 111/146/74 112/145/74 114/147/74 113/148/74
f 113/148/75 114/147/75 116/149/75 115/150/75
f 115/150/76 116/149/76 118/151/76 117/152/76
f 117/152/77 118/151/77 120/153/77 119/154/77
f 119/154/78 120/153/78 122/155/78 121/156/78
f 121/156/79 122/155/79 124/157/79 123/158/79
f 123/158/80 124/157/80 126/159/80 125/160/80
f 125/160/81 126/159/81 128/161/81 127/162/81
f 127/162/82 128/161/82 130/163/82 129/164/82
f 129/164/83 130/163/83 132/165/83 131/166/83
f 131/166/84 132/165/84 134/167/84 133/168/84
f 133/168/85 134/167/85 136/169/85 135/170/85
f 135/170/86 136/169/86 138/171/86 137/172/86
f 137/172/87 138/171/87 140/173/87 139/174/87
f 139/174/88 140/173/88 142/175/88 141/176/88
f 141/176/89 142/175/89 144/177/89 143/178/89
f 143/178/90 144/177/90 146/179/90 145/180/90
f 145/180/91 146/179/91 148/181/91 147/182/91
f 147/182/92 148/181/92 150/183/92 149/184/92
f 149/184/93 150/183/93 152/185/93 151/186/93
f 151/186/94 152/185/94 154/187/94 153/188/94
f 153/188/95 154/187/95 156/189/95 155/190/95
f 155/190/96 156/189/96 158/191/96 157/192/96
f 144/177/97 142/175/97 215/175/97 216/177/97
f 157/192/98 158/191/98 160/193/98 159/194/98
f 159/194/99 160/193/99 98/195/99 97/196/99
f 119/154/100 121/156/100 173/156/100 172/154/100
f 161/197/101 162/198/101 163/199/101 164/200/101 165/201/101 166/202/101 167/203/101 168/204/101 169/205/101 170/206/101 171/207/101 172/208/101 173/209/101 174/210/101 175/211/101 176/212/101 177/213/101 178/214/101 179/215/101 180/216/101 181/217/101 182/218/101 183/219/101 184/220/101 185/221/101 186/222/101 187/223/101 188/224/101 189/225/101 190/226/101 191/227/101 192/228/101
f 137/172/102 139/174/102 182/174/102 181/172/102
f 155/190/103 157/192/103 191/192/103 190/190/103
f 111/146/104 113/148/104 169/148/104 168/146/104
f 129/164/105 131/166/105 178/166/105 177/164/105
f 147/182/106 149/184/106 187/184/106 186/182/106
f 103/138/107 105/140/107 165/140/107 164/138/107
f 121/156/108 123/158/108 174/158/108 173/156/108
f 139/174/109 141/176/109 183/176/109 182/174/109
f 157/192/110 159/194/110 192/194/110 191/192/110
f 113/148/111 115/150/111 170/150/111 169/148/111
f 131/166/112 133/168/112 179/168/112 178/166/112
f 149/184/113 151/186/113 188/186/113 187/184/113
f 105/140/114 107/142/114 166/142/114 165/140/114
f 123/158/115 125/160/115 175/160/115 174/158/115
f 141/176/116 143/178/116 184/178/116 183/176/116
f 97/131/117 99/134/117 162/134/117 161/131/117
f 159/194/118 97/196/118 161/196/118 192/194/118
f 115/150/119 117/152/119 171/152/119 170/150/119
f 133/168/120 135/170/120 180/170/120 179/168/120
f 151/186/121 153/188/121 189/188/121 188/186/121
f 107/142/122 109/144/122 167/144/122 166/142/122
f 125/160/123 127/162/123 176/162/123 175/160/123
f 143/178/124 145/180/124 185/180/124 184/178/124
f 99/134/125 101/136/125 163/136/125 162/134/125
f 117/152/126 119/154/126 172/154/126 171/152/126
f 135/170/127 137/172/127 181/172/127 180/170/127
f 153/188/128 155/190/128 190/190/128 189/188/128
f 109/144/129 111/146/129 168/146/129 167/144/129
f 127/162/130 129/164/130 177/164/130 176/162/130
f 145/180/131 147/182/131 186/182/131 185/180/131
f 101/136/132 103/138/132 164/138/132 163/136/132
f 193/229/133 194/230/133 224/231/133 223/232/133 222/233/133 221/234/133 220/235/133 219/236/133 218/237/133 217/238/133 216/239/133 215/240/133 214/241/133 213/242/133 212/243/133 211/244/133 210/245/133 209/246/133 208/247/133 207/248/133 206/249/133 205/250/133 204/251/133 203/252/133 202/253/133 201/254/133 200/255/133 199/256/133 198/257/133 197/258/133 196/259/133 195/260/133
f 100/133/134 98/132/134 194/132/134 193/133/134
f 98/195/135 160/193/135 224/193/135 194/195/135
f 118/151/136 116/149/136 202/149/136 203/151/136
f 136/169/137 134/167/137 211/167/137 212/169/137
f 154/187/138 152/185/138 220/185/138 221/187/138
f 110/143/139 108/141/139 198/141/139 199/143/139
f 128/161/140 126/159/140 207/159/140 208/161/140
f 146/179/141 144/177/141 216/177/141 217/179/141
f 102/135/142 100/133/142 193/133/142 195/135/142
f 120/153/143 118/151/143 203/151/143 204/153/143
f 138/171/144 136/169/144 212/169/144 213/171/144
f 156/189/145 154/187/145 221/187/145 222/189/145
f 112/145/146 110/143/146 199/143/146 200/145/146
f 130/163/147 128/161/147 208/161/147 209/163/147
f 148/181/148 146/179/148 217/179/148 218/181/148
f 104/137/149 102/135/149 195/135/149 196/137/149
f 122/155/150 120/153/150 204/153/150 205/155/150
f 140/173/151 138/171/151 213/171/151 214/173/151
f 158/191/152 156/189/152 222/189/152 223/191/152
f 114/147/153 112/145/153 200/145/153 201/147/153
f 132/165/154 130/163/154 209/163/154 210/165/154
f 150/183/155 148/181/155 218/181/155 219/183/155
f 106/139/156 104/137/156 196/137/156 197/139/156
f 124/157/157 122/155/157 205/155/157 206/157/157
f 142/175/158 140/173/158 214/173/158 215/175/158
f 160/193/159 158/191/159 223/191/159 224/193/159
f 116/149/160 114/147/160 201/147/160 202/149/160
f 134/167/161 132/165/161 210/165/161 211/167/161
f 152/185/162 150/183/162 219/183/162 220/185/162
f 108/141/163 106/139/163 197/139/163 198/141/163
f 126/159/164 124/157/164 206/157/164 207/159/164
o Cylinder.002
v 0.000000 2.953871 -0.435208
v 0.000000 2.988578 -0.435208
v 0.084905 2.953871 -0.426846
v 0.084905 2.988578 -0.426846
v 0.166547 2.953871 -0.402080
v 0.166547 2.988578 -0.402080
v 0.241789 2.953871 -0.361862
v 0.241789 2.988578 -0.361862
v 0.307739 2.953871 -0.307739
v 0.307739 2.988578 -0.307739
v 0.361862 2.953871 -0.241789
v 0.361862 2.988578 -0.241789
v 0.402080 2.953871 -0.166547
v 0.402080 2.988578 -0.166547
v 0.426846 2.953871 -0.084905
v 0.426846 2.988578 -0.084905
v 0.435208 2.953871 0.000000
v 0.435208 2.988578 0.000000
v 0.426846 2.953871 0.084905
v 0.426846 2.988578 0.084905
v 0.402080 2.953871 0.166547
v 0.402080 2.988578 0.166547
v 0.361862 2.953871 0.241789
v 0.361862 2.988578 0.241789
v 0.307739 2.953871 0.307739
v 0.307739 2.988578 0.307739
v 0.241789 2.953871 0.361862
v 0.241789 2.988578 0.361862
v 0.166547 2.953871 0.402080
v 0.166547 2.988578 0.402080
v 0.084905 2.953871 0.426846
v 0.084905 2.988578 0.426846
v 0.000000 2.953871 0.435208
v 0.000000 2.988578 0.435208
v -0.084905 2.953871 0.426846
v -0.084905 2.988578 0.426846
v -0.166547 2.953871 0.402080
v -0.166547 2.988578 0.402080
v -0.241789 2.953871 0.361862
v -0.241789 2.988578 0.361862
v -0.307739 2.953871 0.307739
v -0.307739 2.988578 0.307739
v -0.361862 2.953871 0.241789
v -0.361862 2.988578 0.241789
v -0.402080 2.953871 0.166547
v -0.402080 2.988578 0.166547
v -0.426846 2.953871 0.084905
v -0.426846 2.988578 0.084905
v -0.435208 2.953871 0.000000
v -0.435208 2.988578 0.000000
v -0.426846 2.953871 -0.084905
v -0.426846 2.988578 -0.084905
v -0.402080 2.953871 -0.166547
v -0.402080 2.988578 -0.166547
v -0.361862 2.953871 -0.241789
v -0.361862 2.988578 -0.241789
v -0.307739 2.953871 -0.307739
v -0.307739 2.988578 -0.307739
v -0.241789 2.953871 -0.361862
v -0.241789 2.988578 -0.361862
v -0.166547 2.953871 -0.402080
v -0.166547 2.988578 -0.402080
v -0.084905 2.953871 -0.426846
v -0.084905 2.988578 -0.426846
v 0.000000 2.925530 -0.227380
v 0.044360 2.925530 -0.223011
v 0.087015 2.925530 -0.210072
v 0.126326 2.925530 -0.189060
v 0.160782 2.925530 -0.160782
v 0.189060 2.925530 -0.126326
v 0.210072 2.925530 -0.087015
v 0.223011 2.925530 -0.044360
v 0.227380 2.925530 0.000000
v 0.223011 2.925530 0.044360
v 0.210072 2.925530 0.087015
v 0.189060 2.925530 0.126326
v 0.160782 2.925530 0.160782
v 0.126326 2.925530 0.189060
v 0.087015 2.925530 0.210072
v 0.044360 2.925530 0.223011
v 0.000000 2.925530 0.227380
v -0.044360 2.925530 0.223011
v -0.087015 2.925530 0.210072
v -0.126326 2.925530 0.189060
v -0.160782 2.925530 0.160782
v -0.189060 2.925530 0.126326
v -0.210072 2.925530 0.087015
v -0.223011 2.925530 0.044360
v -0.227380 2.925530 0.000000
v -0.223011 2.925530 -0.044360
v -0.210072 2.925530 -0.087015
v -0.189060 2.925530 -0.126326
v -0.160782 2.925530 -0.160782
v -0.126326 2.925530 -0.189060
v -0.087015 2.925530 -0.210072
v -0.044360 2.925530 -0.223011
vn 0.0980 -0.0000 -0.9952
vn 0.2903 -0.0000 -0.9569
vn 0.4714 -0.0000 -0.8819
vn 0.6344 -0.0000 -0.7730
vn 0.7730 -0.0000 -0.6344
vn 0.8819 -0.0000 -0.4714
vn 0.9569 -0.0000 -0.2903
vn 0.9952 -0.0000 -0.0980
vn 0.9952 -0.0000 0.0980
vn 0.9569 -0.0000 0.2903
vn 0.8819 -0.0000 0.4714
vn 0.7730 -0.0000 0.6344
vn 0.6344 -0.0000 0.7730
vn 0.4714 -0.0000 0.8819
vn 0.2903 -0.0000 0.9569
vn 0.0980 -0.0000 0.9952
vn -0.0980 -0.0000 0.9952
vn -0.2903 -0.0000 0.9569
vn -0.4714 -0.0000 0.8819
vn -0.6344 -0.0000 0.7730
vn -0.7730 -0.0000 0.6344
vn -0.8819 -0.0000 0.4714
vn -0.9569 -0.0000 0.2903
vn -0.9952 -0.0000 0.0980
vn -0.9952 -0.0000 -0.0980
vn -0.9569 -0.0000 -0.2903
vn -0.8819 -0.0000 -0.4714
vn -0.7730 -0.0000 -0.6344
vn -0.6344 -0.0000 -0.7730
vn -0.4714 -0.0000 -0.8819
vn -0.0000 1.0000 -0.0000
vn -0.2903 -0.0000 -0.9569
vn -0.0980 -0.0000 -0.9952
vn 0.0861 -0.9907 -0.1049
vn -0.0000 -1.0000 -0.0000
vn 0.0861 -0.9907 0.1049
vn -0.1197 -0.9907 0.0640
vn -0.0394 -0.9907 -0.1299
vn 0.1351 -0.9907 0.0133
vn -0.0394 -0.9907 0.1299
vn -0.1197 -0.9907 -0.0640
vn 0.1049 -0.9907 -0.0861
vn 0.0640 -0.9907 0.1197
vn -0.1299 -0.9907 0.0394
vn 0.0133 -0.9907 -0.1351
vn -0.0133 -0.9907 -0.1351
vn 0.1299 -0.9907 0.0394
vn -0.0640 -0.9907 0.1197
vn -0.1049 -0.9907 -0.0861
vn 0.1197 -0.9907 -0.0640
vn 0.0394 -0.9907 0.1299
vn -0.1351 -0.9907 0.0133
vn 0.0394 -0.9907 -0.1299
vn 0.1197 -0.9907 0.0640
vn -0.0861 -0.9907 0.1049
vn -0.0861 -0.9907 -0.1049
vn 0.1299 -0.9907 -0.0394
vn 0.0133 -0.9907 0.1351
vn -0.1351 -0.9907 -0.0133
vn 0.0640 -0.9907 -0.1197
vn 0.1049 -0.9907 0.0861
vn -0.1049 -0.9907 0.0861
vn -0.0640 -0.9907 -0.1197
vn 0.1351 -0.9907 -0.0133
vn -0.0133 -0.9907 0.1351
vn -0.1299 -0.9907 -0.0394
vt 1.000000 0.500000
vt 1.000000 1.000000
vt 0.968750 1.000000
vt 0.968750 0.500000
vt 0.937500 1.000000
vt 0.937500 0.500000
vt 0.906250 1.000000
vt 0.906250 0.500000
vt 0.875000 1.000000
vt 0.875000 0.500000
vt 0.843750 1.000000
vt 0.843750 0.500000
vt 0.812500 1.000000
vt 0.812500 0.500000
vt 0.781250 1.000000
vt 0.781250 0.500000
vt 0.750000 1.000000
vt 0.750000 0.500000
vt 0.718750 1.000000
vt 0.718750 0.500000
vt 0.687500 1.000000
vt 0.687500 0.500000
vt 0.656250 1.000000
vt 0.656250 0.500000
vt 0.625000 1.000000
vt 0.625000 0.500000
vt 0.593750 1.000000
vt 0.593750 0.500000
vt 0.562500 1.000000
vt 0.562500 0.500000
vt 0.531250 1.000000
vt 0.531250 0.500000
vt 0.500000 1.000000
vt 0.500000 0.500000
vt 0.468750 1.000000
vt 0.468750 0.500000
vt 0.437500 1.000000
vt 0.437500 0.500000
vt 0.406250 1.000000
vt 0.406250 0.500000
vt 0.375000 1.000000
vt 0.375000 0.500000
vt 0.343750 1.000000
vt 0.343750 0.500000
vt 0.312500 1.000000
vt 0.312500 0.500000
vt 0.281250 1.000000
vt 0.281250 0.500000
vt 0.250000 1.000000
vt 0.250000 0.500000
vt 0.218750 1.000000
vt 0.218750 0.500000
vt 0.187500 1.000000
vt 0.187500 0.500000
vt 0.156250 1.000000
vt 0.156250 0.500000
vt 0.125000 1.000000
vt 0.125000 0.500000
vt 0.093750 1.000000
vt 0.093750 0.500000
vt 0.062500 1.000000
vt 0.062500 0.500000
vt 0.296822 0.485388
vt 0.250000 0.490000
vt 0.203178 0.485388
vt 0.158156 0.471731
vt 0.116663 0.449553
vt 0.080294 0.419706
vt 0.050447 0.383337
vt 0.028269 0.341844
vt 0.014612 0.296822
vt 0.010000 0.250000
vt 0.014612 0.203178
vt 0.028269 0.158156
vt 0.050447 0.116663
vt 0.080294 0.080294
vt 0.116663 0.050447
vt 0.158156 0.028269
vt 0.203178 0.014612
vt 0.250000 0.010000
vt 0.296822 0.014612
vt 0.341844 0.028269
vt 0.383337 0.050447
vt 0.419706 0.080294
vt 0.449553 0.116663
vt 0.471731 0.158156
vt 0.485388 0.203178
vt 0.490000 0.250000
vt 0.485388 0.296822
vt 0.471731 0.341844
vt 0.449553 0.383337
vt 0.419706 0.419706
vt 0.383337 0.449553
vt 0.341844 0.471731
vt 0.031250 1.000000
vt 0.031250 0.500000
vt 0.000000 1.000000
vt 0.000000 0.500000
vt 0.750000 0.490000
vt 0.796822 0.485388
vt 0.841844 0.471731
vt 0.883337 0.449553
vt 0.919706 0.419706
vt 0.949553 0.383337
vt 0.971731 0.341844
vt 0.985388 0.296822
vt 0.990000 0.250000
vt 0.985388 0.203178
vt 0.971731 0.158156
vt 0.949553 0.116663
vt 0.919706 0.080294
vt 0.883337 0.050447
vt 0.841844 0.028269
vt 0.796822 0.014612
vt 0.750000 0.010000
vt 0.703178 0.014612
vt 0.658156 0.028269
vt 0.616663 0.050447
vt 0.580294 0.080294
vt 0.550447 0.116663
vt 0.528269 0.158156
vt 0.514612 0.203178
vt 0.510000 0.250000
vt 0.514612 0.296822
vt 0.528269 0.341844
vt 0.550447 0.383337
vt 0.580294 0.419706
vt 0.616663 0.449553
vt 0.658156 0.471731
vt 0.703178 0.485388
s 0
usemtl Material.001
f 225/261/165 226/262/165 228/263/165 227/264/165
f 227/264/166 228/263/166 230/265/166 229/266/166
f 229/266/167 230/265/167 232/267/167 231/268/167
f 231/268/168 232/267/168 234/269/168 233/270/168
f 233/270/169 234/269/169 236/271/169 235/272/169
f 235/272/170 236/271/170 238/273/170 237/274/170
f 237/274/171 238/273/171 240/275/171 239/276/171
f 239/276/172 240/275/172 242/277/172 241/278/172
f 241/278/173 242/277/173 244/279/173 243/280/173
f 243/280/174 244/279/174 246/281/174 245/282/174
f 245/282/175 246/281/175 248/283/175 247/284/175
f 247/284/176 248/283/176 250/285/176 249/286/176
f 249/286/177 250/285/177 252/287/177 251/288/177
f 251/288/178 252/287/178 254/289/178 253/290/178
f 253/290/179 254/289/179 256/291/179 255/292/179
f 255/292/180 256/291/180 258/293/180 257/294/180
f 257/294/181 258/293/181 260/295/181 259/296/181
f 259/296/182 260/295/182 262/297/182 261/298/182
f 261/298/183 262/297/183 264/299/183 263/300/183
f 263/300/184 264/299/184 266/301/184 265/302/184
f 265/302/185 266/301/185 268/303/185 267/304/185
f 267/304/186 268/303/186 270/305/186 269/306/186
f 269/306/187 270/305/187 272/307/187 271/308/187
f 271/308/188 272/307/188 274/309/188 273/310/188
f 273/310/189 274/309/189 276/311/189 275/312/189
f 275/312/190 276/311/190 278/313/190 277/314/190
f 277/314/191 278/313/191 280/315/191 279/316/191
f 279/316/192 280/315/192 282/317/192 281/318/192
f 281/318/193 282/317/193 284/319/193 283/320/193
f 283/320/194 284/319/194 286/321/194 285/322/194
f 228/323/195 226/324/195 288/325/195 286/326/195 284/327/195 282/328/195 280/329/195 278/330/195 276/331/195 274/332/195 272/333/195 270/334/195 268/335/195 266/336/195 264/337/195 262/338/195 260/339/195 258/340/195 256/341/195 254/342/195 252/343/195 250/344/195 248/345/195 246/346/195 244/347/195 242/348/195 240/349/195 238/350/195 236/351/195 234/352/195 232/353/195 230/354/195
f 285/322/196 286/321/196 288/355/196 287/356/196
f 287/356/197 288/355/197 226/357/197 225/358/197
f 231/268/198 233/270/198 293/270/198 292/268/198
f 289/359/199 290/360/199 291/361/199 292/362/199 293/363/199 294/364/199 295/365/199 296/366/199 297/367/199 298/368/199 299/369/199 300/370/199 301/371/199 302/372/199 303/373/199 304/374/199 305/375/199 306/376/199 307/377/199 308/378/199 309/379/199 310/380/199 311/381/199 312/382/199 313/383/199 314/384/199 315/385/199 316/386/199 317/387/199 318/388/199 319/389/199 320/390/199
f 249/286/200 251/288/200 302/288/200 301/286/200
f 267/304/201 269/306/201 311/306/201 310/304/201
f 285/322/202 287/356/202 320/356/202 319/322/202
f 241/278/203 243/280/203 298/280/203 297/278/203
f 259/296/204 261/298/204 307/298/204 306/296/204
f 277/314/205 279/316/205 316/316/205 315/314/205
f 233/270/206 235/272/206 294/272/206 293/270/206
f 251/288/207 253/290/207 303/290/207 302/288/207
f 269/306/208 271/308/208 312/308/208 311/306/208
f 225/261/209 227/264/209 290/264/209 289/261/209
f 287/356/210 225/358/210 289/358/210 320/356/210
f 243/280/211 245/282/211 299/282/211 298/280/211
f 261/298/212 263/300/212 308/300/212 307/298/212
f 279/316/213 281/318/213 317/318/213 316/316/213
f 235/272/214 237/274/214 295/274/214 294/272/214
f 253/290/215 255/292/215 304/292/215 303/290/215
f 271/308/216 273/310/216 313/310/216 312/308/216
f 227/264/217 229/266/217 291/266/217 290/264/217
f 245/282/218 247/284/218 300/284/218 299/282/218
f 263/300/219 265/302/219 309/302/219 308/300/219
f 281/318/220 283/320/220 318/320/220 317/318/220
f 237/274/221 239/276/221 296/276/221 295/274/221
f 255/292/222 257/294/222 305/294/222 304/292/222
f 273/310/223 275/312/223 314/312/223 313/310/223
f 229/266/224 231/268/224 292/268/224 291/266/224
f 247/284/225 249/286/225 301/286/225 300/284/225
f 265/302/226 267/304/226 310/304/226 309/302/226
f 283/320/227 285/322/227 319/322/227 318/320/227
f 239/276/228 241/278/228 297/278/228 296/276/228
f 257/294/229 259/296/229 306/296/229 305/294/229
f 275/312/230 277/314/230 315/314/230 314/312/230
o Cylinder.003
v 0.000000 0.114649 -0.435208
v 0.000000 0.149356 -0.435208
v 0.084905 0.114649 -0.426846
v 0.084905 0.149356 -0.426846
v 0.166547 0.114649 -0.402080
v 0.166547 0.149356 -0.402080
v 0.241789 0.114649 -0.361862
v 0.241789 0.149356 -0.361862
v 0.307739 0.114649 -0.307739
v 0.307739 0.149356 -0.307739
v 0.361862 0.114649 -0.241789
v 0.361862 0.149356 -0.241789
v 0.402080 0.114649 -0.166547
v 0.402080 0.149356 -0.166547
v 0.426846 0.114649 -0.084905
v 0.426846 0.149356 -0.084905
v 0.435208 0.114649 0.000000
v 0.435208 0.149356 0.000000
v 0.426846 0.114649 0.084905
v 0.426846 0.149356 0.084905
v 0.402080 0.114649 0.166547
v 0.402080 0.149356 0.166547
v 0.361862 0.114649 0.241789
v 0.361862 0.149356 0.241789
v 0.307739 0.114649 0.307739
v 0.307739 0.149356 0.307739
v 0.241789 0.114649 0.361862
v 0.241789 0.149356 0.361862
v 0.166547 0.114649 0.402080
v 0.166547 0.149356 0.402080
v 0.084905 0.114649 0.426846
v 0.084905 0.149356 0.426846
v 0.000000 0.114649 0.435208
v 0.000000 0.149356 0.435208
v -0.084905 0.114649 0.426846
v -0.084905 0.149356 0.426846
v -0.166547 0.114649 0.402080
v -0.166547 0.149356 0.402080
v -0.241789 0.114649 0.361862
v -0.241789 0.149356 0.361862
v -0.307739 0.114649 0.307739
v -0.307739 0.149356 0.307739
v -0.361862 0.114649 0.241789
v -0.361862 0.149356 0.241789
v -0.402080 0.114649 0.166547
v -0.402080 0.149356 0.166547
v -0.426846 0.114649 0.084905
v -0.426846 0.149356 0.084905
v -0.435208 0.114649 0.000000
v -0.435208 0.149356 0.000000
v -0.426846 0.114649 -0.084905
v -0.426846 0.149356 -0.084905
v -0.402080 0.114649 -0.166547
v -0.402080 0.149356 -0.166547
v -0.361862 0.114649 -0.241789
v -0.361862 0.149356 -0.241789
v -0.307739 0.114649 -0.307739
v -0.307739 0.149356 -0.307739
v -0.241789 0.114649 -0.361862
v -0.241789 0.149356 -0.361862
v -0.166547 0.114649 -0.402080
v -0.166547 0.149356 -0.402080
v -0.084905 0.114649 -0.426846
v -0.084905 0.149356 -0.426846
v 0.000000 0.086308 -0.227380
v 0.044360 0.086308 -0.223011
v 0.087015 0.086308 -0.210072
v 0.126326 0.086308 -0.189060
v 0.160782 0.086308 -0.160782
v 0.189060 0.086308 -0.126326
v 0.210072 0.086308 -0.087015
v 0.223011 0.086308 -0.044360
v 0.227380 0.086308 0.000000
v 0.223011 0.086308 0.044360
v 0.210072 0.086308 0.087015
v 0.189060 0.086308 0.126326
v 0.160782 0.086308 0.160782
v 0.126326 0.086308 0.189060
v 0.087015 0.086308 0.210072
v 0.044360 0.086308 0.223011
v 0.000000 0.086308 0.227380
v -0.044360 0.086308 0.223011
v -0.087015 0.086308 0.210072
v -0.126326 0.086308 0.189060
v -0.160782 0.086308 0.160782
v -0.189060 0.086308 0.126326
v -0.210072 0.086308 0.087015
v -0.223011 0.086308 0.044360
v -0.227380 0.086308 0.000000
v -0.223011 0.086308 -0.044360
v -0.210072 0.086308 -0.087015
v -0.189060 0.086308 -0.126326
v -0.160782 0.086308 -0.160782
v -0.126326 0.086308 -0.189060
v -0.087015 0.086308 -0.210072
v -0.044360 0.086308 -0.223011
vn 0.0980 -0.0000 -0.9952
vn 0.2903 -0.0000 -0.9569
vn 0.4714 -0.0000 -0.8819
vn 0.6344 -0.0000 -0.7730
vn 0.7730 -0.0000 -0.6344
vn 0.8819 -0.0000 -0.4714
vn 0.9569 -0.0000 -0.2903
vn 0.9952 -0.0000 -0.0980
vn 0.9952 -0.0000 0.0980
vn 0.9569 -0.0000 0.2903
vn 0.8819 -0.0000 0.4714
vn 0.7730 -0.0000 0.6344
vn 0.6344 -0.0000 0.7730
vn 0.4714 -0.0000 0.8819
vn 0.2903 -0.0000 0.9569
vn 0.0980 -0.0000 0.9952
vn -0.0980 -0.0000 0.9952
vn -0.2903 -0.0000 0.9569
vn -0.4714 -0.0000 0.8819
vn -0.6344 -0.0000 0.7730
vn -0.7730 -0.0000 0.6344
vn -0.8819 -0.0000 0.4714
vn -0.9569 -0.0000 0.2903
vn -0.9952 -0.0000 0.0980
vn -0.9952 -0.0000 -0.0980
vn -0.9569 -0.0000 -0.2903
vn -0.8819 -0.0000 -0.4714
vn -0.7730 -0.0000 -0.6344
vn -0.6344 -0.0000 -0.7730
vn -0.4714 -0.0000 -0.8819
vn -0.0000 1.0000 -0.0000
vn -0.2903 -0.0000 -0.9569
vn -0.0980 -0.0000 -0.9952
vn 0.0861 -0.9907 -0.1049
vn -0.0000 -1.0000 -0.0000
vn 0.0861 -0.9907 0.1049
vn -0.1197 -0.9907 0.0640
vn -0.0394 -0.9907 -0.1299
vn 0.1351 -0.9907 0.0133
vn -0.0394 -0.9907 0.1299
vn -0.1197 -0.9907 -0.0640
vn 0.1049 -0.9907 -0.0861
vn 0.0640 -0.9907 0.1197
vn -0.1299 -0.9907 0.0394
vn 0.0133 -0.9907 -0.1351
vn -0.0133 -0.9907 -0.1351
vn 0.1299 -0.9907 0.0394
vn -0.0640 -0.9907 0.1197
vn -0.1049 -0.9907 -0.0861
vn 0.1197 -0.9907 -0.0640
vn 0.0394 -0.9907 0.1299
vn -0.1351 -0.9907 0.0133
vn 0.0394 -0.9907 -0.1299
vn 0.1197 -0.9907 0.0640
vn -0.0861 -0.9907 0.1049
vn -0.0861 -0.9907 -0.1049
vn 0.1299 -0.9907 -0.0394
vn 0.0133 -0.9907 0.1351
vn -0.1351 -0.9907 -0.0133
vn 0.0640 -0.9907 -0.1197
vn 0.1049 -0.9907 0.0861
vn -0.1049 -0.9907 0.0861
vn -0.0640 -0.9907 -0.1197
vn 0.1351 -0.9907 -0.0133
vn -0.0133 -0.9907 0.1351
vn -0.1299 -0.9907 -0.0394
vt 1.000000 0.500000
vt 1.000000 1.000000
vt 0.968750 1.000000
vt 0.968750 0.500000
vt 0.937500 1.000000
vt 0.937500 0.500000
vt 0.906250 1.000000
vt 0.906250 0.500000
vt 0.875000 1.000000
vt 0.875000 0.500000
vt 0.843750 1.000000
vt 0.843750 0.500000
vt 0.812500 1.000000
vt 0.812500 0.500000
vt 0.781250 1.000000
vt 0.781250 0.500000
vt 0.750000 1.000000
vt 0.750000 0.500000
vt 0.718750 1.000000
vt 0.718750 0.500000
vt 0.687500 1.000000
vt 0.687500 0.500000
vt 0.656250 1.000000
vt 0.656250 0.500000
vt 0.625000 1.000000
vt 0.625000 0.500000
vt 0.593750 1.000000
vt 0.593750 0.500000
vt 0.562500 1.000000
vt 0.562500 0.500000
vt 0.531250 1.000000
vt 0.531250 0.500000
vt 0.500000 1.000000
vt 0.500000 0.500000
vt 0.468750 1.000000
vt 0.468750 0.500000
vt 0.437500 1.000000
vt 0.437500 0.500000
vt 0.406250 1.000000
vt 0.406250 0.500000
vt 0.375000 1.000000
vt 0.375000 0.500000
vt 0.343750 1.000000
vt 0.343750 0.500000
vt 0.312500 1.000000
vt 0.312500 0.500000
vt 0.281250 1.000000
vt 0.281250 0.500000
vt 0.250000 1.000000
vt 0.250000 0.500000
vt 0.218750 1.000000
vt 0.218750 0.500000
vt 0.187500 1.000000
vt 0.187500 0.500000
vt 0.156250 1.000000
vt 0.156250 0.500000
vt 0.125000 1.000000
vt 0.125000 0.500000
vt 0.093750 1.000000
vt 0.093750 0.500000
vt 0.062500 1.000000
vt 0.062500 0.500000
vt 0.296822 0.485388
vt 0.250000 0.490000
vt 0.203178 0.485388
vt 0.158156 0.471731
vt 0.116663 0.449553
vt 0.080294 0.419706
vt 0.050447 0.383337
vt 0.028269 0.341844
vt 0.014612 0.296822
vt 0.010000 0.250000
vt 0.014612 0.203178
vt 0.028269 0.158156
vt 0.050447 0.116663
vt 0.080294 0.080294
vt 0.116663 0.050447
vt 0.158156 0.028269
vt 0.203178 0.014612
vt 0.250000 0.010000
vt 0.296822 0.014612
vt 0.341844 0.028269
vt 0.383337 0.050447
vt 0.419706 0.080294
vt 0.449553 0.116663
vt 0.471731 0.158156
vt 0.485388 0.203178
vt 0.490000 0.250000
vt 0.485388 0.296822
vt 0.471731 0.341844
vt 0.449553 0.383337
vt 0.419706 0.419706
vt 0.383337 0.449553
vt 0.341844 0.471731
vt 0.031250 1.000000
vt 0.031250 0.500000
vt 0.000000 1.000000
vt 0.000000 0.500000
vt 0.750000 0.490000
vt 0.796822 0.485388
vt 0.841844 0.471731
vt 0.883337 0.449553
vt 0.919706 0.419706
vt 0.949553 0.383337
vt 0.971731 0.341844
vt 0.985388 0.296822
vt 0.990000 0.250000
vt 0.985388 0.203178
vt 0.971731 0.158156
vt 0.949553 0.116663
vt 0.919706 0.080294
vt 0.883337 0.050447
vt 0.841844 0.028269
vt 0.796822 0.014612
vt 0.750000 0.010000
vt 0.703178 0.014612
vt 0.658156 0.028269
vt 0.616663 0.050447
vt 0.580294 0.080294
vt 0.550447 0.116663
vt 0.528269 0.158156
vt 0.514612 0.203178
vt 0.510000 0.250000
vt 0.514612 0.296822
vt 0.528269 0.341844
vt 0.550447 0.383337
vt 0.580294 0.419706
vt 0.616663 0.449553
vt 0.658156 0.471731
vt 0.703178 0.485388
s 0
usemtl Material.002
f 321/391/231 322/392/231 324/393/231 323/394/231
f 323/394/232 324/393/232 326/395/232 325/396/232
f 325/396/233 326/395/233 328/397/233 327/398/233
f 327/398/234 328/397/234 330/399/234 329/400/234
f 329/400/235 330/399/235 332/401/235 331/402/235
f 331/402/236 332/401/236 334/403/236 333/404/236
f 333/404/237 334/403/237 336/405/237 335/406/237
f 335/406/238 336/405/238 338/407/238 337/408/238
f 337/408/239 338/407/239 340/409/239 339/410/239
f 339/410/240 340/409/240 342/411/240 341/412/240
f 341/412/241 342/411/241 344/413/241 343/414/241
f 343/414/242 344/413/242 346/415/242 345/416/242
f 345/416/243 346/415/243 348/417/243 347/418/243
f 347/418/244 348/417/244 350/419/244 349/420/244
f 349/420/245 350/419/245 352/421/245 351/422/245
f 351/422/246 352/421/246 354/423/246 353/424/246
f 353/424/247 354/423/247 356/425/247 355/426/247
f 355/426/248 356/425/248 358/427/248 357/428/248
f 357/428/249 358/427/249 360/429/249 359/430/249
f 359/430/250 360/429/250 362/431/250 361/432/250
f 361/432/251 362/431/251 364/433/251 363/434/251
f 363/434/252 364/433/252 366/435/252 365/436/252
f 365/436/253 366/435/253 368/437/253 367/438/253
f 367/438/254 368/437/254 370/439/254 369/440/254
f 369/440/255 370/439/255 372/441/255 371/442/255
f 371/442/256 372/441/256 374/443/256 373/444/256
f 373/444/257 374/443/257 376/445/257 375/446/257
f 375/446/258 376/445/258 378/447/258 377/448/258
f 377/448/259 378/447/259 380/449/259 379/450/259
f 379/450/260 380/449/260 382/451/260 381/452/260
f 324/453/261 322/454/261 384/455/261 382/456/261 380/457/261 378/458/261 376/459/261 374/460/261 372/461/261 370/462/261 368/463/261 366/464/261 364/465/261 362/466/261 360/467/261 358/468/261 356/469/261 354/470/261 352/471/261 350/472/261 348/473/261 346/474/261 344/475/261 342/476/261 340/477/261 338/478/261 336/479/261 334/480/261 332/481/261 330/482/261 328/483/261 326/484/261
f 381/452/262 382/451/262 384/485/262 383/486/262
f 383/486/263 384/485/263 322/487/263 321/488/263
f 327/398/264 329/400/264 389/400/264 388/398/264
f 385/489/265 386/490/265 387/491/265 388/492/265 389/493/265 390/494/265 391/495/265 392/496/265 393/497/265 394/498/265 395/499/265 396/500/265 397/501/265 398/502/265 399/503/265 400/504/265 401/505/265 402/506/265 403/507/265 404/508/265 405/509/265 406/510/265 407/511/265 408/512/265 409/513/265 410/514/265 411/515/265 412/516/265 413/517/265 414/518/265 415/519/265 416/520/265
f 345/416/266 347/418/266 398/418/266 397/416/266
f 363/434/267 365/436/267 407/436/267 406/434/267
f 381/452/268 383/486/268 416/486/268 415/452/268
f 337/408/269 339/410/269 394/410/269 393/408/269
f 355/426/270 357/428/270 403/428/270 402/426/270
f 373/444/271 375/446/271 412/446/271 411/444/271
f 329/400/272 331/402/272 390/402/272 389/400/272
f 347/418/273 349/420/273 399/420/273 398/418/273
f 365/436/274 367/438/274 408/438/274 407/436/274
f 321/391/275 323/394/275 386/394/275 385/391/275
f 383/486/276 321/488/276 385/488/276 416/486/276
f 339/410/277 341/412/277 395/412/277 394/410/277
f 357/428/278 359/430/278 404/430/278 403/428/278
f 375/446/279 377/448/279 413/448/279 412/446/279
f 331/402/280 333/404/280 391/404/280 390/402/280
f 349/420/281 351/422/281 400/422/281 399/420/281
f 367/438/282 369/440/282 409/440/282 408/438/282
f 323/394/283 325/396/283 387/396/283 386/394/283
f 341/412/284 343/414/284 396/414/284 395/412/284
f 359/430/285 361/432/285 405/432/285 404/430/285
f 377/448/286 379/450/286 414/450/286 413/448/286
f 333/404/287 335/406/287 392/406/287 391/404/287
f 351/422/288 353/424/288 401/424/288 400/422/288
f 369/440/289 371/442/289 410/442/289 409/440/289
f 325/396/290 327/398/290 388/398/290 387/396/290
f 343/414/291 345/416/291 397/416/291 396/414/291
f 361/432/292 363/434/292 406/434/292 405/432/292
f 379/450/293 381/452/293 415/452/293 414/450/293
f 335/406/294 337/408/294 393/408/294 392/406/294
f 353/424/295 355/426/295 402/426/295 401/424/295
f 371/442/296 373/444/296 411/444/296 410/442/296
